<!-- Generated by IcoMoon.io -->
<svg version="1.1" xmlns="http://www.w3.org/2000/svg" width="114" height="95" viewBox="0 0 1024 1024">
<title></title>
<g id="icomoon-ignore">
</g>
<path fill="#000" d="M4691.498 480.044c-0.373-7.445-0.785-16.365-1.411-25.238-0.526-7.085-1.203-14.166-1.996-21.203-0.362-3.195-1-6.3-1.579-9.448-1.265-6.979-2.52-14.004-3.982-20.935-4.769-22.665-11.756-44.762-20.934-66.012-9.66-22.718-21.884-44.237-36.415-64.176-18.632-25.501-40.606-47.648-66.537-65.693-14.062-9.76-29.119-17.992-44.916-24.504-1.153-0.469-2.362-0.74-3.615-0.897-1.16-0.153-2.206 0.729-2.515 1.784-0.153 0.473-0.152 0.992 0.048 1.422s0.476 0.845 0.892 1.149c0.887 0.635 1.888 1.16 2.891 1.579 12.021 4.776 23.453 10.813 34.424 17.68 12.38 7.765 24.078 16.584 34.895 26.391 24.035 21.612 43.653 46.75 59.55 74.872 16.634 29.433 28.437 60.759 35.991 93.71 1.625 7.078 2.83 14.214 4.202 21.306 0.105 0.572 0.155 1.103 0.211 1.674 0.268 2.777 0.208 2.887-2.464 2.99-2.052 0.1-4.149 0.1-6.243 0.206-1.621 0.1-1.945 0.574-1.727 2.098 0.79 5.245 1.726 10.445 2.362 15.694 0.845 6.769 1.621 13.584 2.303 20.356 1.16 11.811 0.95 23.669 0.629 35.527-0.268 10.174-0.895 20.311-2.148 30.435-4.192 34.265-14.641 67.472-30.899 97.905-4.826 9.124-10.016 18.044-15.010 27.022-0.266 0.476-0.582 0.945-0.887 1.416-0.782 1.308-1.524 2.618-2.304 3.888 1.411 1.16 3.099 0.629 4.671 0.739 1.254 0.1 2.517-0.16 3.731-0.048 2.467 0.263 4.149-0.89 5.776-2.618 6.398-6.816 11.905-14.424 16.321-22.62 5.084-9.291 9.345-18.997 12.851-29.015 5.034-14.327 9.66-28.759 13.27-43.552 3.354-13.805 6.082-27.759 7.771-41.876 1.053-8.711 1.893-17.469 2.046-26.282 0.1-4.724 0.371-9.448 0.632-15.693zM4653.903 253.178c0.261 1.631 0.425 3.303 0.79 4.927 0.161 0.678 0.474 1.265 0.895 1.834 0.785 1.050 2.618 0.992 3.196-0.163 0.476-0.95 0.993-2.052 0.95-3.1-0.053-2.205-0.371-4.411-0.732-6.608-0.158-1.002-0.887-1.726-1.936-1.99-1.682-0.425-3.195 0.521-3.252 2.205-0.053 0.947 0.1 1.937 0.153 2.889l-0.105 0.005zM4355.861 422.377c0.263 2.629 0.522 5.25 0.842 7.866 0.1 0.635 0.416 1.313 0.74 1.892 0.529 0.939 1.422 1.254 2.47 1.103 0.892-0.105 1.577-0.627 1.84-1.422 0.263-0.783 0.373-1.578 0.364-2.411-0.163-2.356-0.424-4.671-0.782-6.979-0.163-1.098-0.476-2.151-0.939-3.153-0.373-0.94-1.106-1.579-2.209-1.527-0.939 0.048-1.625 0.734-1.938 1.842-0.105 0.373-0.211 0.79-0.268 1.208-0.058 0.529-0.105 1.1-0.158 1.621zM524.335 933.706c-13.271-0.362-26.599-0.572-39.928-1.048-9.555-0.372-19.146-0.944-28.654-1.677-9.284-0.677-18.527-1.516-27.762-2.513-17.521-1.936-34.992-4.25-52.362-7.185-33.583-5.666-66.637-13.427-98.903-24.449-17.105-5.871-33.79-12.696-49.85-21.038-11.601-6.035-22.777-12.801-33.109-20.883-9.023-7.079-17.311-14.898-23.879-24.348-4.359-6.138-7.666-12.963-9.807-20.203-3.099-11.014-2.413-21.777 1.572-32.423 3.206-8.608 8.293-16.056 14.382-22.827 5.723-6.291 12.117-11.915 19.041-16.846 12.906-9.342 26.867-16.743 41.45-23.088 8.658-3.774 17.471-7.183 26.394-10.226 2.776-0.945 5.509-1.942 8.232-2.995 9.599-3.783 19.574-6.186 29.598-8.395 8.547-1.892 17.048-3.888 25.608-5.609 10.226-1.997 20.46-3.834 30.7-5.511 9.028-1.471 18.149-2.626 27.182-3.888 2.734-0.371 5.512-0.635 8.285-0.95 0.572-0.055 1.104-0.105 1.674-0.1 3.094 0.1 4.927 2.146 4.563 5.189-0.055 0.529-0.265 1.055-0.468 1.579-0.213 0.627 0.268 0.837 0.624 0.834 1.94-0.058 3.88-0.163 5.819-0.363 0.417-0.051 0.787-0.257 1.051-0.572 0.521-0.729-0.268-0.947-0.628-1.261-3.94-3.516-7.927-6.982-11.905-10.495-0.635-0.582-1.211-0.627-1.677 0.11-0.95 1.571-2.408 1.737-3.992 1.416-0.678-0.155-1.317-0.373-1.997-0.572-5.2-1.31-10.393-1.416-15.589 0.257-3.146 0.997-6.242 0.634-9.345-0.519-4.037-1.471-8.182-2.629-12.277-3.934-1.149-0.363-2.146-0.048-3.201 0.421-1.892 0.839-3.836 1.527-5.871 2.146-4.035 1.149-7.979 0.206-11.916-0.627-2.308-0.476-4.612-1.053-6.878-1.579-1.044-0.257-1.782 0.105-2.629 0.739-2.891 2.15-5.872 4.203-8.918 6.137-4.612 2.884-9.652 3.405-14.85 2.308-6.662-1.417-13.123-3.566-19.356-6.398-8.763-3.934-17.845-6.879-26.967-9.864-3.041-0.995-6.081-2.042-9.021-3.25-10.657-4.353-21.623-7.869-32.484-11.706-10.075-3.571-20.091-7.299-30.166-10.911-8.873-3.15-17.845-6.085-26.754-9.292-15.639-5.714-31.533-10.751-47.064-16.788-1.418-0.572-2.835-1.107-4.25-1.684-1.051-0.424-2.095-0.95-2.523-2.047-0.581-1.411-1.737-2.146-2.881-2.94-17.362-12.913-31.851-28.596-43.92-46.542-9.915-14.847-18.044-30.805-24.184-47.589-6.035-16.365-10.443-33.263-13.168-50.476-1.411-8.658-2.303-17.417-2.944-26.178-0.946-12.43-0.845-24.817-0.423-37.248 0.268-8.232 1.151-16.376 2.097-24.559 1.94-16.525 5.141-32.788 9.446-48.798 7.981-29.799 19.786-58.403 35.104-85.16 10.604-18.675 22.985-36.259 36.944-52.569 23.501-27.285 50.633-50.055 82.529-66.893 19.524-10.392 40.509-17.79 62.232-21.935 3.409-0.634 6.868-1.055 10.282-1.621 0.572-0.1 1.149-0.257 1.632-0.11 3.985 0.739 8.030 0.263 12.014 0.939 3.832 0.627 7.662 1.308 11.494 1.937 16.843 2.729 33.575 6.197 50.268 9.649 12.115 2.468 24.139 5.192 36.251 7.76 13.962 2.944 27.968 5.827 41.97 8.811 11.807 2.516 23.611 5.037 35.37 7.661 13.427 2.99 26.762 6.187 40.188 9.124 6.186 1.361 11.804 3.985 17.476 6.553 2.678 1.205 4.99 2.944 7.141 4.984 4.57 4.35 8.6 9.127 11.071 15.011 0.526 1.261 1.364 1.837 2.783 2.052 4.247 0.729 8.503 1.411 12.643 2.569 12.643 3.566 23.35 10.18 31.425 20.78 0.939 1.21 1.943 2.461 2.518 3.832 0.996 2.408 2.781 3.676 4.983 4.769 4.876 2.408 9.659 4.879 14.487 7.299 0.994 0.519 1.995 0.992 2.944 1.521 0.731 0.416 1.622 0.737 2.050 1.366 1.474 2.098 3.731 2.784 5.924 3.676 6.081 2.471 11.916 5.305 17.478 8.766 5.557 3.416 11.381 6.453 16.575 10.445 1.101 0.842 2.253 1.674 3.251 2.621 12.22 11.648 23.873 23.763 33.271 37.881 9.129 13.691 16.741 28.33 22.722 43.655 7.028 18.054 12.117 36.832 15.168 55.982 1.622 9.916 2.731 19.883 3.462 29.904 0.993 13.689 0.95 27.333 0.362 40.979-0.624 11.698-1.837 23.348-3.674 34.896-4.455 28.811-12.387 56.984-23.669 83.852-1.517 3.615-3.151 7.137-4.72 10.706-0.258 0.574-0.103 1.1 0.52 1.368 0.519 0.215 1.001 0.469 1.524 0.632 3.727 1.258 6.984 3.353 10.226 5.609 1.259 0.892 2.408 1.887 3.101 3.303 1.261 2.471 3.414 3.985 5.875 5.095 3.783 1.784 7.769 3.047 11.959 3.461 7.454 0.729 14.953 1.21 22.457 0.519 0.572-0.053 1.104-0.058 1.675-0.105 9.859-0.572 19.679-1.258 29.538-1.579 6.243-0.21 12.49 0.108 18.732 0.213 1.106 0.005 2.209 0.105 3.311 0.153 7.501 0.206 14.958 0.834 22.41 1.579 6.501 0.682 13.007 1.21 19.466 2.042 5.775 0.732 11.544 1.624 17.268 2.629 9.969 1.787 19.934 3.676 29.856 5.661 27.13 5.305 53.519 14.013 78.5 25.873 11.487 5.453 22.042 12.385 32.326 19.78 3.773 2.723 6.877 6.090 9.707 9.754 6.243 8.032 12.121 16.314 17.156 25.185 5.882 10.443 9.868 21.564 11.437 33.42 1.264 9.754 0.89 19.517-1.737 29.065-1.945 7.132-3.836 14.274-6.3 21.203-5.347 15.012-13.333 28.486-24.655 39.83-11.328 11.433-23.774 21.356-37.046 30.381-19.041 12.956-39.2 23.765-60.134 33.217-34.26 15.527-69.79 27.228-106.256 36.251-28.434 7.078-57.243 12.386-86.308 15.956-10.866 1.361-21.777 2.471-32.694 3.405-8.713 0.729-17.467 1.208-26.181 1.729-8.185 0.474-16.372 0.729-24.56 0.679-9.025-0.005-18.049 0.268-27.027 0.942-13.28 0.941-26.607 1.517-39.935 1.729-7.086 0.105-14.167 0.373-21.308 0.624zM676.327 314.184l0.108 0.834c0.047 0.152 0.058 0.26 0.108 0.373 0.058-0.206 0.268-0.425 0.215-0.574-0.108-0.211-0.368-0.363-0.573-0.526-0.1-0.635 0.1-1.421-0.839-1.676-0.16-0.79-0.208-1.677-0.526-2.408-1.419-3.195-2.886-6.348-4.456-9.447-7.979-15.901-17.686-30.639-29.748-43.755-1.516-1.629-2.888-3.361-4.981-4.403-0.729-0.364-1.212-1.103-1.785-1.729-2.521-2.779-4.99-5.609-7.561-8.342-2.308-2.417-4.934-4.513-7.819-6.195-1.674-0.997-3.311-1.995-4.936-3.095-18.89-12.808-39.662-20.615-62.387-22.609-11.913-1.054-23.926-0.477-35.683 1.727-18.622 3.511-35.99 10.282-52.315 19.839-20.101 11.801-37.462 26.917-52.884 44.339-14.476 16.365-26.602 34.317-36.933 53.566-15.999 29.804-26.92 61.443-33.635 94.597-0.154 0.682-0.214 1.367-0.257 2.052 0 0.624 0.318 1.055 0.948 1.158 2.468 0.363 4.979 0.635 7.445 1 1.517 0.211 1.838 0.624 1.726 2.253-0.418 5.142-0.838 10.285-1.317 15.425-0.258 2.513-0.635 4.982-1.044 7.45-0.95 6.081-1.624 12.171-1.945 18.265-0.368 9.072-0.368 18.149-0.003 27.18 0.1 2.629 0.153 5.3 0.32 7.928 0.373 5.142 0.944 10.28 1.309 15.425 0.519 7.087 1.156 14.169 2.618 21.146 0.473 2.308 1.211 4.563 1.936 6.821 0.365 1.205 0.896 2.314 1.264 3.521 2.829 9.072 5.977 17.994 9.442 26.809 3.405 8.708 6.818 17.373 11.128 25.663 5.776 10.969 12.379 21.511 19.681 31.487 16.26 22.404 36.933 39.197 62.492 49.792 2.831 1.158 5.719 2.147 8.603 3.15 0.786 0.263 1.622 0.425 2.418 0.526 0.841 0.105 2.146-1.16 2.15-2.205 0.005-0.837-0.686-1.098-1.411-1.308-0.788-0.26-1.574-0.527-2.358-0.837-10.814-3.992-21.203-8.873-30.802-15.477-16.743-11.49-30.481-25.925-41.771-42.757-12.545-18.63-21.516-38.981-27.762-60.545-3.982-13.797-6.823-27.867-8.553-42.134-2.311-18.527-2.886-37.259-1.726-55.934 1.265-21.413 4.717-42.706 10.175-63.441 7.872-30.012 19.671-58.345 36.041-84.686 14.007-22.515 30.794-42.663 51.314-59.548 13.534-11.118 28.224-20.256 44.338-27.070 16.050-6.771 33.163-10.542 50.575-11.074 7.503-0.162 15.005 0.371 22.402 1.632 14.686 2.363 28.491 7.246 41.402 14.592 4.203 2.413 8.397 4.927 12.535 7.501 3.517 2.209 6.973 4.616 9.914 7.606 3.041 3.090 6.135 6.090 9.135 9.177 4.774 4.878 9.24 10.025 13.427 15.473 6.766 8.866 12.747 18.308 17.845 28.223 0.628 1.203 0.944 2.621 2.198 3.416 0.055 0.677-0.003 1.411 0.838 1.632zM12.835 409.427c0.31 6.924 0.581 12.488 0.74 18.054 0.213 7.666 1.055 15.317 2.047 22.882 1.106 8.862 2.728 17.63 4.773 26.334 5.349 22.662 13.28 44.284 24.876 64.532 13.639 23.77 31.11 44.080 53.409 60.082 0.789 0.576 1.632 1.15 2.202 1.892 0.789 1.1 1.842 1.629 3.041 2.052 4.297 1.626 8.55 3.303 12.858 4.826 10.86 3.832 21.728 7.611 32.631 11.39 9.704 3.405 19.416 6.711 29.115 10.13 10.708 3.827 21.406 7.761 32.111 11.6 8.758 3.15 17.521 6.248 26.282 9.395 4.718 1.684 9.344 3.521 14.109 5.092 8.818 2.934 17.634 5.871 26.135 9.66 5.194 2.314 10.552 4.248 16.112 5.563 5.194 1.254 10.177 0.993 14.697-2.314 1.997-1.471 4.245-2.671 6.348-3.992 0.576-0.366 1.16-0.737 1.624-1.258 0.373-0.519 0.896-0.887 1.474-1.104s1.21-0.315 1.837-0.257c1.519 0.11 3.043 0.215 4.518 0.526 2.155 0.425 4.3 1.153 6.455 1.579 4.463 0.94 8.862 0.89 12.902-1.674 0.362-0.213 0.738-0.366 1.104-0.572 0.681-0.365 1.418-0.578 2.199-0.633s1.526 0.047 2.258 0.267c5.036 1.569 9.972 3.458 15.265 4.037 2.052 1.421 4.2 0.845 6.4 0.268 3.206-0.845 6.51-1.516 9.869-1.002 2.2 0.316 4.358 0.792 6.555 1.205 0.415 0.058 0.834 0.1 1.254 0.1 0.11 0 0.268-0.1 0.363-0.206 0.052-0.058 0.005-0.263-0.050-0.363-0.523-0.632-1.054-1.261-1.579-1.892-3.569-4.297-7.294-8.443-10.657-12.851-14.162-18.369-24.557-38.822-32.274-60.608-7.194-20.518-12.019-41.819-14.371-63.441-1.523-13.588-2.252-27.236-2.147-40.923 0.047-3.2 0.32-6.403 0.373-9.603 0.258-12.587 1.632-25.027 3.459-37.462 2.728-18.779 6.976-37.259 12.695-55.355 10.022-31.739 24.134-61.44 43.187-88.726 13.802-19.734 29.806-37.462 48.583-52.579 16.943-13.643 35.464-24.456 55.987-31.686 11.591-4.087 23.501-6.824 35.685-7.769 11.496-0.89 23.035-0.837 34.469 1.311 0.415 0.058 0.836 0.050 1.254 0.048 0.152 0 0.263-0.1 0.373-0.152-0.055-0.108-0.1-0.263-0.163-0.318-0.791-0.572-1.579-1.103-2.415-1.624-1.831-1.052-3.3-2.623-4.203-4.511-2.152-4.511-5.41-8.085-9.131-11.282-6.609-5.822-14.487-9.964-23.037-12.021-2.305-0.572-4.612-1.16-6.923-1.468-2.723-0.362-5.356-1.368-8.19-0.366-1.369 0.476-2.783-0.784-2.941-2.209-0.057-0.417-0.055-0.837 0.047-1.254 0.519-1.629-0.163-2.987-0.891-4.358-2.209-4.413-5.559-7.977-9.128-11.328-1.834-1.729-3.935-3.101-6.24-4.142-5.41-2.469-11.070-4.458-16.845-5.924-9.334-2.209-18.632-4.305-27.971-6.407-10.436-2.358-20.83-4.774-31.272-6.982-12.487-2.674-24.981-5.137-37.469-7.76-25.243-5.303-50.475-10.753-75.719-15.956-10.027-2.095-20.154-3.779-30.273-5.616-4.928-0.892-9.867-1.621-14.748-2.619-2.471-0.521-4.831-1.21-7.289 0.047-0.471 0.257-1.101 0.153-1.632 0.211-12.692 1.787-25.085 4.669-37.249 8.759-19.098 6.501-37.259 15.431-54.049 26.649-27.075 17.845-50.16 40.039-70.046 65.645-18.942 24.499-34.472 51.467-46.17 80.168-8.814 21.406-15.477 43.649-19.886 66.372-2.313 12.021-4.202 24.183-5.033 36.415-0.624 8.873-1.055 17.834-1.522 25.394zM575.966 393.526l-0.373-10.385c-0.103-2.516-0.105-5.037-0.32-7.55-0.845-9.29-2.042-18.57-3.992-27.702-3.201-14.907-7.928-29.325-15.063-42.818-6.35-12.067-14.32-22.882-24.552-32.001-9.544-8.443-20.309-14.487-32.639-17.74-4.41-1.209-8.967-1.947-13.49-2.258-1.838-0.103-3.3-0.732-3.514-2.832-0.058-0.737-0.423-0.95-1.055-0.627-0.95 0.522-1.942 1.053-2.891 1.627-18.885 11.127-35.047 25.499-49.327 42.028-14.172 16.376-25.923 34.47-35.728 53.829-8.605 17.049-15.589 34.843-20.93 53.203-2.829 9.763-5.198 19.673-7.141 29.647-0.32 1.726-0.213 1.889 1.414 2.361 3.88 1.098 7.767 2.095 11.601 3.3 7.299 2.204 14.271 5.513 20.615 9.817 7.769 5.401 13.584 12.335 16.683 21.356 1.892 5.513 3.517 11.129 5.294 16.733 0.578 1.842 1.052 3.777 1.831 5.563 2.941 7.029 7.771 12.064 15.218 14.382 4.402 1.411 8.813 2.521 13.328 3.205 9.601 1.469 19.205 2.839 28.854 4.090 10.182 1.265 20.405 2.524 30.484 4.402 4.769 0.845 9.604 1.422 14.012 3.729 0.629 0.263 1.315 0.32 1.992 0.205 4.928-0.839 9.817-1.732 14.743-2.624 1.516-0.266 3.254-0.208 4.358-1.002 1.149-0.835 1.632-2.521 2.314-3.884 13.855-27.391 22.819-57.034 26.439-87.566 1.206-9.974 1.572-19.993 1.995-30.49zM694.941 429.261c0.056-9.914-0.416-19.828-1.414-29.651-1.047-10.126-2.623-20.154-4.726-30.122-4.723-21.933-12.069-42.916-22.925-62.549-6.763-12.231-14.69-23.665-24.242-33.897-0.944-1.044-1.885-2.146-3.041-2.832-1.263-0.838-2.412-1.842-3.359-3.045-4.72-5.3-9.291-10.803-15.899-13.906-0.519-0.257-0.939-0.629-1.367-0.945-15.427-10.812-33.158-17.891-51.782-20.626-3.149-0.474-6.35-0.634-9.544-0.942-0.215-0.047-0.473 0.11-0.731 0.206 0.163 0.205 0.32 0.425 0.572 0.582 0.471 0.311 0.946 0.576 1.422 0.837 6.555 3.463 12.493 7.766 18.154 12.542 9.502 8.138 18.308 17.152 26.282 26.814 7.342 8.764 13.595 18.367 18.727 28.601 6.030 12.169 10.287 24.97 13.584 38.14 2.31 9.342 4.248 18.783 4.769 28.433 0.572 11.016 0.362 22.039-0.635 33.009-0.048 0.572-0.109 1.104-0.258 1.632-0.425 1.832-1.735 2.99-3.094 2.832-1.574-0.163-2.52-1.726-2.313-3.832 0.163-1.942 0.572-3.879 0.624-5.821 0.163-6.291 0.315-12.543 0.365-18.833 0.11-6.826-0.365-13.69-1.422-20.416-1.726-10.023-4.098-19.934-7.194-29.598-4.508-14.166-10.545-27.596-19.052-39.819-10.026-14.269-21.927-27.126-35.315-38.249-6.354-5.405-13.487-9.866-21.14-13.27-2.156-0.94-4.297-1.99-6.345-3.148-0.949-0.572-2.052-0.786-3.195-0.632-2.623 0.263-5.251 0.469-7.869 0.845-10.598 1.624-20.983 4.098-30.91 8.138-4.618 1.887-9.135 3.993-13.696 6.082-0.576 0.263-1.516 0.892-1.422 1.208 0.163 1.050 1.264 0.74 2.045 0.897 0.265 0.053 0.572 0.047 0.836 0.058 2.731 0.424 5.509 0.737 8.232 1.317 11.546 2.618 22.408 7.664 31.851 14.851 11.179 8.39 20.044 18.838 27.331 30.7 7.183 11.703 12.43 24.291 16.271 37.458 5.039 17.058 7.456 34.578 8.19 52.316 0.521 13.382-0.056 26.808-1.727 40.089-1.419 11.755-3.622 23.405-6.606 34.889-5.98 23.081-14.592 45.066-26.602 65.64-2.881 4.934-5.924 9.763-8.866 14.686-0.624 0.995-0.468 1.521 0.471 2.047 0.95 0.572 1.945 1.055 2.936 1.621 1.312 0.729 1.569 0.682 2.314-0.572 4.671-7.292 8.655-14.951 12.010-22.93 1.889-4.511 1.265-4.353 5.927-3.463 0.834 0.158 1.674 0.158 2.468 0.364 14.9 3.466 28.224 10.016 39.407 20.615 0.31 0.268 0.581 0.677 0.949 0.787 0.31 0.103 0.939 0.005 1.046-0.206 0.526-0.95 0.996-1.992 1.367-3.038 3.519-9.548 7.189-19.043 10.497-28.644 4.298-12.385 7.919-24.973 10.655-37.783 1.574-7.35 2.673-14.798 3.777-22.246 0.21-1.366 0.523-2.732 0.889-4.087 0.208-0.74 0.888-1.044 1.624-1.053 0.42-0.003 0.837 0.152 1.154 0.415 0.317 0.265 0.528 0.635 0.624 1.055 0.1 0.572 0.152 1.103 0.155 1.674 0.208 5.987-0.257 12.014-1.317 17.939-2.202 11.645-5.084 23.138-8.603 34.425-5.402 17.467-11.698 34.58-18.842 51.369-2.938 6.924-5.976 13.805-8.923 20.725-0.729 1.631-1.467 3.3-2.203 4.932l3.514 4.087c0.102 0.105 0.21 0.268 0.31 0.263 0.362-0.047 0.841-0.005 0.996-0.215 0.572-0.79 1.044-1.632 1.469-2.519 3.144-6.082 5.932-12.279 8.442-18.632 0.415-1.048 0.791-2.052 1.261-3.092 0.1-0.208 0.423-0.418 0.635-0.418 0.163 0 0.423 0.268 0.526 0.519 0.624 1.261 1.099 2.574 1.737 3.783 1.414 2.566 2.779 5.142 4.403 7.558 2.358 3.511 5.769 5.614 9.812 6.611 1.887 0.469 3.783 0.785 5.724 0.995 7.874 0.837 15.797 0.835 23.716 0.997 1.516 0.047 2.31-0.579 2.891-1.837 1.782-3.777 3.626-7.506 5.399-11.328 9.030-19.78 15.95-40.459 20.615-61.751 2.146-9.658 4.037-19.364 5.088-29.225 0.783-7.192 1.632-14.382 2.147-21.622 0.423-6.243 0.371-12.535 0.528-18.788zM466.353 895.481c13.427-0.105 25.296-0.266 37.199-1.831 9.081-1.102 18.047-3.195 26.704-6.186 0.939-0.317 1.789-0.732 2.629-1.205 0.836-0.474 1.159-1.576 0.944-2.571-0.107-0.474-0.369-0.896-0.739-1.21s-0.84-0.519-1.316-0.524c-0.684-0.001-1.368 0.056-2.047 0.21-10.075 1.947-20.146 3.993-30.381 4.882-5.819 0.519-11.601 1.149-17.423 1.265-11.651 0.362-23.302 0.206-34.95-0.425-9.439-0.522-18.835-1.254-28.226-2.152-10.226-1.044-20.405-2.471-30.539-3.879-14.428-2.041-28.758-4.518-43.024-7.553-28.65-6.031-56.819-14.319-84.16-24.76-14.951-5.666-29.546-12.019-43.547-19.838-1.94-1.098-3.88-2.198-5.777-3.305-1.052-0.681-2.304-1.044-3.521-1-2.041 0.1-3.254 1.729-2.881 3.729 0.163 0.95 0.737 1.836 1.569 2.408 0.894 0.632 1.842 1.208 2.828 1.782 8.392 4.931 17.050 9.345 25.924 13.322 17.889 8.027 36.258 14.69 54.933 20.615 21.299 6.771 42.975 12.22 64.955 16.262 8.866 1.624 17.736 3.205 26.649 4.623 6.713 1.055 13.479 1.936 20.202 2.731 6.192 0.739 12.43 1.411 18.625 1.947 8.555 0.785 17.152 1.621 25.711 2.1 7.078 0.418 14.162 0.371 19.778 0.521zM802.342 882.567c1.001-0.263 1.831-0.474 2.623-0.679 10.342-2.618 20.566-5.819 30.539-9.649 31.33-11.811 61.544-26.188 90.987-42.18 10.131-5.506 20.099-11.282 29.593-17.893 1.364-0.945 2.723-1.945 4.039-2.942 0.425-0.318 0.845-0.684 1.256-1.1 1.098-1.205 1.264-3.038 0.474-4.25-0.792-1.21-2.52-1.621-4.089-0.79-0.845 0.468-1.68 0.993-2.462 1.574-5.976 4.355-12.172 8.295-18.525 12.016-24.027 14.011-48.907 26.282-74.346 37.52-15.108 6.711-30.589 12.44-46.065 18.209-4.561 1.684-9.126 3.356-13.644 5.092-0.888 0.37-1.68 0.894-2.408 1.527-0.628 0.529-0.624 1.726 0.047 2.261 0.581 0.524 1.362 0.839 1.943 1.203zM763.967 607.754c3.407 0.1 8.086 0.258 12.808 0.318 1.254 0.047 2.468-0.1 3.72-0.266 0.736-0.108 1.044-1.627 0.418-2.1-0.419-0.364-0.891-0.633-1.412-0.84-2.146-0.677-4.35-0.996-6.56-0.95-11.916-0.263-23.873 0.101-35.781 1.053-3.724 0.316-7.446 0.79-11.129 1.265-3.987 0.526-7.928 1.316-11.959 1.632-3.615 0.362-7.194 0.32-10.805-0.050-7.033-0.887-13.899-2.944-20.201-6.187-3.569-1.834-6.878-4.148-10.335-6.243-2.618-1.579-5.196-3.2-7.865-4.722-0.95-0.572-1.579-0.208-2.303 1.053-0.734 1.311-0.635 1.732 0.423 2.411 2.938 1.837 5.977 3.564 8.815 5.515 7.662 5.305 16.271 9.079 25.395 11.074 3.672 0.835 7.346 1.316 11.121 1.368 4.042 0.050 8.030-0.469 12.010-1.153 8.873-1.526 17.889-2.152 26.864-2.782 5.095-0.366 10.28-0.313 16.735-0.471zM468.29 670.883c6.135 0.163 12.86-0.684 19.569-1.942 4.090-0.782 8.080-1.947 12.115-3.042 1.099-0.268 1.369-0.837 1.16-1.834-0.205-0.947-0.425-1.892-0.681-2.837-0.521-2.041-0.631-2.102-2.463-1.576-8.442 2.461-16.995 4.037-25.757 4.826-9.97 0.89-20.038-0.001-29.696-2.624-7.183-1.892-13.801-5.037-20.096-8.967-1.051-0.635-2.2-1.16-3.309-1.726-0.163-0.1-0.581 0.053-0.731 0.213-0.105 0.153-0.052 0.579 0.1 0.729 3.201 2.887 6.302 5.874 9.656 8.601 3.206 2.626 6.668 4.987 10.027 7.453 0.834 0.624 1.627 1.098 2.363-0.257 0.163-0.318 0.949-0.424 1.469-0.425 0.528 0 1.055 0.213 1.624 0.363 7.822 2.098 15.791 3.098 24.604 3.040zM465.414 705.38c0.37-0.261 1.054-0.474 1.106-0.79 0.055-0.471-0.268-1.045-0.572-1.516-0.105-0.205-0.468-0.268-0.729-0.371-0.524-0.206-1.049-0.369-1.577-0.526-13.063-3.721-24.97-9.921-36.363-17.161-11.804-7.498-22.244-16.628-31.697-26.865-2.729-2.94-2.203-3.1-6.771-1.469-0.152 0.051-0.26 0.104-0.37 0.158-0.519 0.257-0.729 0.942-0.362 1.411 0.845 1.098 1.735 2.198 2.678 3.198 4.308 4.717 8.925 9.135 13.794 13.327 15.273 13.119 32.431 22.777 51.837 28.336 2.933 0.837 5.882 1.516 9.026 2.306zM503.192 844.17l0.003 0.257c6.090-0.316 12.177-0.632 18.265-0.95 5.669-0.313 11.339-0.579 17.047-1 1.782-0.11 3.564-0.574 5.296-1.048 1.411-0.371 2.313-1.677 2.152-2.729-0.054-0.572-0.268-1.098-0.678-1.518s-0.887-0.729-1.419-0.835c-1.317-0.362-2.723-0.572-4.092-0.582-3.615 0.003-7.194 0.11-10.81 0.311-8.030 0.373-16.057 0.947-24.089 1.263-5.404 0.211-10.81 0.105-16.26 0.158-0.834 0.003-1.682 0-2.466 0.215-0.528 0.157-1.044 0.425-1.415 0.843s-0.635 0.895-0.789 1.422c-0.152 0.53-0.11 1.105 0.048 1.632s0.425 1.044 0.845 1.415c0.582 0.576 1.359 0.947 2.153 1.1 1.936 0.266 3.836 0.425 5.777 0.421 3.464-0.050 6.926-0.26 10.39-0.373zM546.261 592.126c-0.415 0.362-1.001 0.679-1.364 1.16-0.207 0.268-0.267 0.635-0.212 1 0.055 0.363 0.26 0.677 0.53 0.887 0.996 0.732 2.052 1.411 3.204 1.837 1.831 0.729 3.677 1.205 5.515 1.789 9.6 3.045 18.044 8.977 24.139 17.004 2.524 3.305 4.929 6.763 7.186 10.235 2.936 4.564 5.614 9.285 8.503 13.899 4.823 7.613 11.226 13.794 18.262 19.261 0.95 0.782 2.1 1.317 3.201 1.937 0.475 0.264 1.044 0.373 1.577 0.366 0.476-0.053 1.104-0.364 1.317-0.737 0.213-0.371 0.208-1.203-0.058-1.516-0.834-0.939-1.737-1.737-2.733-2.513-8.608-6.553-15.904-14.272-21.25-23.77-0.888-1.576-1.831-3.145-2.781-4.669-2.524-3.985-4.986-8.032-7.712-11.908-7.184-10.226-16.527-17.53-28.442-21.407-2.513-0.834-4.981-1.729-7.454-2.573-0.373-0.152-0.791-0.163-1.467-0.319zM906.981 628.218h-0.845c-0.74 0.1-1.311 0.425-1.572 1.158-0.152 0.373-0.108 0.835 0.048 1.208 0.158 0.373 0.424 0.729 0.79 0.897 0.519 0.263 0.998 0.526 1.524 0.635 8.762 2.198 17.208 5.305 25.557 8.656 19.419 7.716 36.934 18.469 50.843 34.467 0.362 0.423 0.734 0.836 1.156 1.16 0.577 0.471 1.259 0.629 1.936 0.208 0.155-0.1 0.268-0.209 0.373-0.362 0.103-0.153 0.163-0.312 0.211-0.473 0.050-0.162 0.050-0.362 0.003-0.524s-0.103-0.362-0.206-0.475c-1.211-1.997-2.364-4.097-3.883-5.882-1.888-2.209-3.982-4.298-6.192-6.186-12.435-10.385-25.873-19.146-41.078-24.973-6.982-2.677-14.065-5.090-21.098-7.561-1.833-0.632-3.723-1.098-5.609-1.579-0.787-0.213-1.622-0.362-1.993-0.418zM675.612 688.513c-0.155-0.313-0.268-1.103-0.74-1.469-1.42-1.097-2.936-2.052-4.508-2.937-7.76-4.297-15.799-7.928-22.822-13.488-0.572-0.373-1.203-0.679-1.842-0.79-0.729-0.155-1.422 0.153-1.73 0.837-0.205 0.519-0.163 1.055 0.003 1.574 0.268 0.582 0.783 1.155 1.312 1.569 2.1 1.574 4.147 3.3 6.407 4.563 6.615 3.724 13.333 7.288 20.044 10.864 0.731 0.371 1.527 0.576 2.314 0.79 0.576 0.158 1.464-0.526 1.524-1.516zM632.118 588.553c2.628 0.258 6.197 0.529 9.762 0.94 2.468 0.266 4.931 0.677 7.394 0.997 1.055 0.155 1.89-0.163 2.41-1.16 0.26-0.476 0.572-0.95 0.731-1.474 0.055-0.163-0.103-0.574-0.26-0.634-0.476-0.263-1-0.425-1.527-0.572-4.36-0.624-8.757-1.313-13.121-1.727-3.195-0.257-6.348-0.268-9.544-0.163-1.362 0.005-2.723 0.425-4.042 0.739-0.415 0.1-0.74 0.314-1.044 0.632-0.268 0.424-0.578 1.044-0.519 1.473 0.1 0.425 0.573 1 0.996 1.16 0.635 0.206 1.317 0.261 2.041 0.163 1.937-0.1 3.836-0.257 6.721-0.418zM455.855 535.4c-0.103-0.257-0.153-0.574-0.315-0.634-0.16-0.058-0.425 0.105-0.683 0.163l0.416 0.845c0.205-0.153 0.415-0.263 0.624-0.373z"></path>
</svg>
