<!-- Generated by IcoMoon.io -->
<svg version="1.1" xmlns="http://www.w3.org/2000/svg" width="35" height="35" viewBox="0 0 768 768">
<title></title>
<g id="icomoon-ignore">
</g>
<path fill="#8B83F6" d="M610.048 323.488l37.728-76.384c2.368-4.768 2.176-10.464-0.48-15.072-2.656-4.64-7.488-7.616-12.832-7.968l-84.992-5.504-5.504-84.992c-0.352-5.344-3.328-10.144-7.968-12.832s-10.304-2.88-15.104-0.48l-76.32 37.76-47.264-70.88c-5.952-8.896-20.672-8.896-26.624 0l-47.264 70.88-76.32-37.76c-4.832-2.4-10.464-2.208-15.104 0.48-4.64 2.656-7.616 7.488-7.968 12.832l-5.472 84.992-85.024 5.472c-5.344 0.352-10.176 3.328-12.832 7.968-2.688 4.64-2.848 10.304-0.48 15.104l37.728 76.352-70.848 47.264c-4.448 2.976-7.136 7.968-7.136 13.312s2.656 10.336 7.136 13.312l70.88 47.264-37.76 76.352c-2.368 4.8-2.176 10.464 0.48 15.104 2.656 4.608 7.488 7.616 12.832 7.936l84.992 5.472 5.472 85.024c0.352 5.344 3.328 10.144 7.968 12.832 4.608 2.656 10.24 2.816 15.104 0.48l76.352-37.728 47.264 70.848c2.976 4.448 7.968 7.136 13.312 7.136s10.336-2.656 13.312-7.136l47.264-70.848 76.352 37.728c4.8 2.336 10.464 2.176 15.104-0.48s7.616-7.488 7.968-12.832l5.472-84.992 84.992-5.504c5.344-0.352 10.144-3.328 12.832-7.968 2.656-4.64 2.848-10.304 0.48-15.104l-37.728-76.32 70.848-47.296c4.448-2.976 7.136-7.968 7.136-13.312s-2.656-10.336-7.136-13.312l-70.848-47.2z"></path>
</svg>
